<?xml version="1.0" standalone="no"?>
<!DOCTYPE svg PUBLIC "-//W3C//DTD SVG 20010904//EN"
 "http://www.w3.org/TR/2001/REC-SVG-20010904/DTD/svg10.dtd">
<svg version="1.0" xmlns="http://www.w3.org/2000/svg"
 width="700.000000pt" height="700.000000pt" viewBox="0 0 700.000000 700.000000"
 preserveAspectRatio="xMidYMid meet">
<metadata>
Created by potrace 1.14, written by Peter Selinger 2001-2017
</metadata>
<g transform="translate(0.000000,700.000000) scale(0.100000,-0.100000)"
fill="#000000" stroke="none">
<path d="M4501 5504 c-72 -12 -130 -30 -198 -60 -17 -8 -33 -14 -36 -14 -18 0
-161 -107 -210 -156 -102 -103 -199 -272 -222 -390 -71 -368 61 -691 366 -890
37 -24 70 -44 74 -44 3 0 24 -9 48 -19 89 -40 169 -55 302 -57 143 -3 243 16
357 68 330 152 527 516 472 873 -38 251 -200 481 -424 602 -157 86 -351 117
-529 87z"/>
<path d="M2148 5455 c-91 -18 -221 -73 -297 -124 -436 -296 -492 -907 -117
-1275 115 -113 273 -194 436 -225 75 -14 261 -6 335 13 236 64 431 217 534
423 87 171 114 367 76 548 -67 319 -326 574 -650 641 -62 12 -251 12 -317 -1z"/>
<path d="M4628 3185 c-2 -1 -28 -5 -58 -8 -77 -8 -182 -42 -265 -85 -204 -107
-358 -298 -416 -520 -32 -116 -33 -281 -5 -397 52 -215 172 -384 355 -505 242
-158 552 -175 815 -44 163 82 284 202 366 364 67 133 85 218 84 385 -1 125 -5
150 -41 255 -44 130 -103 222 -208 325 -145 142 -332 221 -544 230 -44 2 -81
2 -83 0z"/>
<path d="M2258 3135 c-1 -1 -21 -5 -43 -8 -118 -17 -279 -91 -379 -173 -131
-108 -234 -266 -278 -426 -47 -175 -27 -403 51 -560 59 -121 75 -144 166 -233
169 -168 354 -244 588 -243 408 3 745 298 808 708 11 70 8 206 -6 275 -25 122
-95 267 -176 365 -153 184 -367 287 -611 295 -64 2 -118 2 -120 0z"/>
</g>
</svg>
