<svg width="202" height="79" viewBox="0 0 202 79" fill="none" xmlns="http://www.w3.org/2000/svg">
<line x1="51" y1="49" x2="180.25" y2="49" stroke="#3625FD" stroke-opacity="0.5" stroke-width="20"/>
<path d="M97.5664 32.5H92.7969V23.9336H97.5664V24.8125H93.793V27.584H97.3496V28.4512H93.793V31.6211H97.5664V32.5ZM101.604 32.6172C100.791 32.6172 100.146 32.3398 99.6699 31.7852C99.1973 31.2305 98.9609 30.4062 98.9609 29.3125C98.9609 28.207 99.2031 27.373 99.6875 26.8105C100.172 26.2441 100.816 25.9609 101.621 25.9609C101.961 25.9609 102.258 26.0059 102.512 26.0957C102.766 26.1855 102.984 26.3066 103.168 26.459C103.352 26.6074 103.506 26.7773 103.631 26.9688H103.701C103.686 26.8477 103.67 26.6816 103.654 26.4707C103.639 26.2598 103.631 26.0879 103.631 25.9551V23.3828H104.604V32.5H103.818L103.672 31.5859H103.631C103.51 31.7773 103.355 31.9512 103.168 32.1074C102.984 32.2637 102.764 32.3887 102.506 32.4824C102.252 32.5723 101.951 32.6172 101.604 32.6172ZM101.756 31.8086C102.443 31.8086 102.93 31.6133 103.215 31.2227C103.5 30.832 103.643 30.252 103.643 29.4824V29.3066C103.643 28.4902 103.506 27.8633 103.232 27.4258C102.963 26.9883 102.471 26.7695 101.756 26.7695C101.158 26.7695 100.711 27 100.414 27.4609C100.117 27.918 99.9688 28.543 99.9688 29.3359C99.9688 30.125 100.115 30.7344 100.408 31.1641C100.705 31.5938 101.154 31.8086 101.756 31.8086ZM108.459 35.3828C107.615 35.3828 106.965 35.2246 106.508 34.9082C106.051 34.5957 105.822 34.1562 105.822 33.5898C105.822 33.1875 105.949 32.8438 106.203 32.5586C106.461 32.2734 106.816 32.084 107.27 31.9902C107.102 31.9121 106.957 31.7949 106.836 31.6387C106.719 31.4824 106.66 31.3027 106.66 31.0996C106.66 30.8652 106.725 30.6602 106.854 30.4844C106.986 30.3047 107.188 30.1328 107.457 29.9688C107.121 29.832 106.848 29.6016 106.637 29.2773C106.43 28.9492 106.326 28.5684 106.326 28.1348C106.326 27.6738 106.422 27.2812 106.613 26.957C106.805 26.6289 107.082 26.3789 107.445 26.207C107.809 26.0352 108.248 25.9492 108.764 25.9492C108.877 25.9492 108.99 25.9551 109.104 25.9668C109.221 25.9746 109.332 25.9883 109.438 26.0078C109.543 26.0234 109.635 26.043 109.713 26.0664H111.916V26.6934L110.732 26.8398C110.85 26.9922 110.947 27.1758 111.025 27.3906C111.104 27.6055 111.143 27.8438 111.143 28.1055C111.143 28.7461 110.926 29.2559 110.492 29.6348C110.059 30.0098 109.463 30.1973 108.705 30.1973C108.525 30.1973 108.342 30.1816 108.154 30.1504C107.963 30.2559 107.816 30.373 107.715 30.502C107.617 30.6309 107.568 30.7793 107.568 30.9473C107.568 31.0723 107.605 31.1719 107.68 31.2461C107.758 31.3203 107.869 31.375 108.014 31.4102C108.158 31.4414 108.332 31.457 108.535 31.457H109.666C110.365 31.457 110.9 31.6035 111.271 31.8965C111.646 32.1895 111.834 32.6172 111.834 33.1797C111.834 33.8906 111.545 34.4355 110.967 34.8145C110.389 35.1934 109.553 35.3828 108.459 35.3828ZM108.488 34.6211C109.02 34.6211 109.459 34.5664 109.807 34.457C110.158 34.3516 110.42 34.1973 110.592 33.9941C110.768 33.7949 110.855 33.5566 110.855 33.2793C110.855 33.0215 110.797 32.8262 110.68 32.6934C110.562 32.5645 110.391 32.4785 110.164 32.4355C109.938 32.3887 109.66 32.3652 109.332 32.3652H108.219C107.93 32.3652 107.678 32.4102 107.463 32.5C107.248 32.5898 107.082 32.7227 106.965 32.8984C106.852 33.0742 106.795 33.293 106.795 33.5547C106.795 33.9023 106.941 34.166 107.234 34.3457C107.527 34.5293 107.945 34.6211 108.488 34.6211ZM108.74 29.4883C109.205 29.4883 109.555 29.3711 109.789 29.1367C110.023 28.9023 110.141 28.5605 110.141 28.1113C110.141 27.6309 110.021 27.2715 109.783 27.0332C109.545 26.791 109.193 26.6699 108.729 26.6699C108.283 26.6699 107.939 26.7949 107.697 27.0449C107.459 27.291 107.34 27.6523 107.34 28.1289C107.34 28.5664 107.461 28.9023 107.703 29.1367C107.945 29.3711 108.291 29.4883 108.74 29.4883ZM115.654 25.9609C116.201 25.9609 116.67 26.082 117.061 26.3242C117.451 26.5664 117.75 26.9062 117.957 27.3438C118.164 27.7773 118.268 28.2852 118.268 28.8672V29.4707H113.832C113.844 30.2246 114.031 30.7988 114.395 31.1934C114.758 31.5879 115.27 31.7852 115.93 31.7852C116.336 31.7852 116.695 31.748 117.008 31.6738C117.32 31.5996 117.645 31.4902 117.98 31.3457V32.2012C117.656 32.3457 117.334 32.4512 117.014 32.5176C116.697 32.584 116.322 32.6172 115.889 32.6172C115.271 32.6172 114.732 32.4922 114.271 32.2422C113.814 31.9883 113.459 31.6172 113.205 31.1289C112.951 30.6406 112.824 30.043 112.824 29.3359C112.824 28.6445 112.939 28.0469 113.17 27.543C113.404 27.0352 113.732 26.6445 114.154 26.3711C114.58 26.0977 115.08 25.9609 115.654 25.9609ZM115.643 26.7578C115.123 26.7578 114.709 26.9277 114.4 27.2676C114.092 27.6074 113.908 28.082 113.85 28.6914H117.248C117.244 28.3086 117.184 27.9727 117.066 27.6836C116.953 27.3906 116.779 27.1641 116.545 27.0039C116.311 26.8398 116.01 26.7578 115.643 26.7578Z" fill="black"/>
<circle cx="30.5" cy="48.5" r="30.5" fill="black"/>
<circle cx="176.75" cy="48.75" r="24.5" fill="black"/>
<path d="M17.8691 13H16.7207L12.0508 5.80471H12.0039C12.0156 5.99612 12.0293 6.21487 12.0449 6.46096C12.0605 6.70315 12.0723 6.96291 12.0801 7.24026C12.0918 7.51369 12.0977 7.79299 12.0977 8.07815V13H11.1719V4.43362H12.3145L16.9668 11.6055H17.0078C17 11.4688 16.9902 11.2754 16.9785 11.0254C16.9668 10.7715 16.9551 10.5 16.9434 10.211C16.9355 9.91799 16.9316 9.64651 16.9316 9.39651V4.43362H17.8691V13ZM25.5977 9.77737C25.5977 10.3047 25.5293 10.7754 25.3926 11.1895C25.2559 11.6035 25.0586 11.9531 24.8008 12.2383C24.543 12.5235 24.2305 12.7422 23.8633 12.8946C23.5 13.043 23.0879 13.1172 22.627 13.1172C22.1973 13.1172 21.8027 13.043 21.4434 12.8946C21.0879 12.7422 20.7793 12.5235 20.5176 12.2383C20.2598 11.9531 20.0586 11.6035 19.9141 11.1895C19.7734 10.7754 19.7031 10.3047 19.7031 9.77737C19.7031 9.07424 19.8223 8.47659 20.0605 7.9844C20.2988 7.4883 20.6387 7.11135 21.0801 6.85354C21.5254 6.59182 22.0547 6.46096 22.668 6.46096C23.2539 6.46096 23.7656 6.59182 24.2031 6.85354C24.6445 7.11526 24.9863 7.49416 25.2285 7.99026C25.4746 8.48244 25.5977 9.07815 25.5977 9.77737ZM20.7109 9.77737C20.7109 10.293 20.7793 10.7403 20.916 11.1192C21.0527 11.4981 21.2637 11.791 21.5488 11.9981C21.834 12.2051 22.2012 12.3086 22.6504 12.3086C23.0957 12.3086 23.4609 12.2051 23.7461 11.9981C24.0352 11.791 24.248 11.4981 24.3848 11.1192C24.5215 10.7403 24.5898 10.293 24.5898 9.77737C24.5898 9.26565 24.5215 8.82424 24.3848 8.45315C24.248 8.07815 24.0371 7.78909 23.752 7.58596C23.4668 7.38284 23.0977 7.28127 22.6445 7.28127C21.9766 7.28127 21.4863 7.50198 21.1738 7.94338C20.8652 8.38479 20.7109 8.99612 20.7109 9.77737ZM29.5645 13.1172C28.752 13.1172 28.1074 12.8399 27.6309 12.2852C27.1582 11.7305 26.9219 10.9063 26.9219 9.81252C26.9219 8.70705 27.1641 7.87307 27.6484 7.31057C28.1328 6.74416 28.7773 6.46096 29.582 6.46096C29.9219 6.46096 30.2188 6.50588 30.4727 6.59573C30.7266 6.68557 30.9453 6.80666 31.1289 6.95901C31.3125 7.10744 31.4668 7.27737 31.5918 7.46877H31.6621C31.6465 7.34768 31.6309 7.18166 31.6152 6.97073C31.5996 6.75979 31.5918 6.58791 31.5918 6.4551V3.88284H32.5645V13H31.7793L31.6328 12.086H31.5918C31.4707 12.2774 31.3164 12.4512 31.1289 12.6074C30.9453 12.7637 30.7246 12.8887 30.4668 12.9824C30.2129 13.0723 29.9121 13.1172 29.5645 13.1172ZM29.7168 12.3086C30.4043 12.3086 30.8906 12.1133 31.1758 11.7227C31.4609 11.3321 31.6035 10.752 31.6035 9.98244V9.80666C31.6035 8.99026 31.4668 8.3633 31.1934 7.9258C30.9238 7.4883 30.4316 7.26955 29.7168 7.26955C29.1191 7.26955 28.6719 7.50002 28.375 7.96096C28.0781 8.41799 27.9297 9.04299 27.9297 9.83596C27.9297 10.625 28.0762 11.2344 28.3691 11.6641C28.666 12.0938 29.1152 12.3086 29.7168 12.3086ZM37.0996 6.46096C37.6465 6.46096 38.1152 6.58205 38.5059 6.82424C38.8965 7.06643 39.1953 7.40627 39.4023 7.84377C39.6094 8.27737 39.7129 8.78518 39.7129 9.36721V9.97073H35.2773C35.2891 10.7246 35.4766 11.2989 35.8398 11.6934C36.2031 12.0879 36.7148 12.2852 37.375 12.2852C37.7812 12.2852 38.1406 12.2481 38.4531 12.1739C38.7656 12.0996 39.0898 11.9903 39.4258 11.8457V12.7012C39.1016 12.8457 38.7793 12.9512 38.459 13.0176C38.1426 13.084 37.7676 13.1172 37.334 13.1172C36.7168 13.1172 36.1777 12.9922 35.7168 12.7422C35.2598 12.4883 34.9043 12.1172 34.6504 11.6289C34.3965 11.1406 34.2695 10.543 34.2695 9.83596C34.2695 9.14455 34.3848 8.5469 34.6152 8.04299C34.8496 7.53518 35.1777 7.14455 35.5996 6.87112C36.0254 6.59768 36.5254 6.46096 37.0996 6.46096ZM37.0879 7.25784C36.5684 7.25784 36.1543 7.42776 35.8457 7.7676C35.5371 8.10744 35.3535 8.58205 35.2949 9.19143H38.6934C38.6895 8.80862 38.6289 8.47268 38.5117 8.18362C38.3984 7.89065 38.2246 7.66409 37.9902 7.50393C37.7559 7.33987 37.4551 7.25784 37.0879 7.25784ZM47.6699 13H46.7207V6.92971C46.7207 6.69924 46.7207 6.50198 46.7207 6.33791C46.7246 6.16994 46.7285 6.0176 46.7324 5.88088C46.7402 5.74026 46.75 5.59768 46.7617 5.45315C46.6406 5.57815 46.5273 5.68557 46.4219 5.77541C46.3164 5.86135 46.1855 5.96877 46.0293 6.09768L45.0508 6.88284L44.541 6.22073L46.8613 4.43362H47.6699V13Z" fill="black"/>
<path d="M164.119 19.5H162.971L158.301 12.3047H158.254C158.266 12.4961 158.279 12.7148 158.295 12.9609C158.311 13.2031 158.322 13.4629 158.33 13.7402C158.342 14.0137 158.348 14.293 158.348 14.5781V19.5H157.422V10.9336H158.564L163.217 18.1055H163.258C163.25 17.9688 163.24 17.7754 163.229 17.5254C163.217 17.2715 163.205 17 163.193 16.7109C163.186 16.418 163.182 16.1465 163.182 15.8965V10.9336H164.119V19.5ZM171.848 16.2773C171.848 16.8047 171.779 17.2754 171.643 17.6895C171.506 18.1035 171.309 18.4531 171.051 18.7383C170.793 19.0234 170.48 19.2422 170.113 19.3945C169.75 19.543 169.338 19.6172 168.877 19.6172C168.447 19.6172 168.053 19.543 167.693 19.3945C167.338 19.2422 167.029 19.0234 166.768 18.7383C166.51 18.4531 166.309 18.1035 166.164 17.6895C166.023 17.2754 165.953 16.8047 165.953 16.2773C165.953 15.5742 166.072 14.9766 166.311 14.4844C166.549 13.9883 166.889 13.6113 167.33 13.3535C167.775 13.0918 168.305 12.9609 168.918 12.9609C169.504 12.9609 170.016 13.0918 170.453 13.3535C170.895 13.6152 171.236 13.9941 171.479 14.4902C171.725 14.9824 171.848 15.5781 171.848 16.2773ZM166.961 16.2773C166.961 16.793 167.029 17.2402 167.166 17.6191C167.303 17.998 167.514 18.291 167.799 18.498C168.084 18.7051 168.451 18.8086 168.9 18.8086C169.346 18.8086 169.711 18.7051 169.996 18.498C170.285 18.291 170.498 17.998 170.635 17.6191C170.771 17.2402 170.84 16.793 170.84 16.2773C170.84 15.7656 170.771 15.3242 170.635 14.9531C170.498 14.5781 170.287 14.2891 170.002 14.0859C169.717 13.8828 169.348 13.7812 168.895 13.7812C168.227 13.7812 167.736 14.002 167.424 14.4434C167.115 14.8848 166.961 15.4961 166.961 16.2773ZM175.814 19.6172C175.002 19.6172 174.357 19.3398 173.881 18.7852C173.408 18.2305 173.172 17.4062 173.172 16.3125C173.172 15.207 173.414 14.373 173.898 13.8105C174.383 13.2441 175.027 12.9609 175.832 12.9609C176.172 12.9609 176.469 13.0059 176.723 13.0957C176.977 13.1855 177.195 13.3066 177.379 13.459C177.562 13.6074 177.717 13.7773 177.842 13.9688H177.912C177.896 13.8477 177.881 13.6816 177.865 13.4707C177.85 13.2598 177.842 13.0879 177.842 12.9551V10.3828H178.814V19.5H178.029L177.883 18.5859H177.842C177.721 18.7773 177.566 18.9512 177.379 19.1074C177.195 19.2637 176.975 19.3887 176.717 19.4824C176.463 19.5723 176.162 19.6172 175.814 19.6172ZM175.967 18.8086C176.654 18.8086 177.141 18.6133 177.426 18.2227C177.711 17.832 177.854 17.252 177.854 16.4824V16.3066C177.854 15.4902 177.717 14.8633 177.443 14.4258C177.174 13.9883 176.682 13.7695 175.967 13.7695C175.369 13.7695 174.922 14 174.625 14.4609C174.328 14.918 174.18 15.543 174.18 16.3359C174.18 17.125 174.326 17.7344 174.619 18.1641C174.916 18.5938 175.365 18.8086 175.967 18.8086ZM183.35 12.9609C183.896 12.9609 184.365 13.082 184.756 13.3242C185.146 13.5664 185.445 13.9062 185.652 14.3438C185.859 14.7773 185.963 15.2852 185.963 15.8672V16.4707H181.527C181.539 17.2246 181.727 17.7988 182.09 18.1934C182.453 18.5879 182.965 18.7852 183.625 18.7852C184.031 18.7852 184.391 18.748 184.703 18.6738C185.016 18.5996 185.34 18.4902 185.676 18.3457V19.2012C185.352 19.3457 185.029 19.4512 184.709 19.5176C184.393 19.584 184.018 19.6172 183.584 19.6172C182.967 19.6172 182.428 19.4922 181.967 19.2422C181.51 18.9883 181.154 18.6172 180.9 18.1289C180.646 17.6406 180.52 17.043 180.52 16.3359C180.52 15.6445 180.635 15.0469 180.865 14.543C181.1 14.0352 181.428 13.6445 181.85 13.3711C182.275 13.0977 182.775 12.9609 183.35 12.9609ZM183.338 13.7578C182.818 13.7578 182.404 13.9277 182.096 14.2676C181.787 14.6074 181.604 15.082 181.545 15.6914H184.943C184.939 15.3086 184.879 14.9727 184.762 14.6836C184.648 14.3906 184.475 14.1641 184.24 14.0039C184.006 13.8398 183.705 13.7578 183.338 13.7578ZM195.912 19.5H190.299V18.6855L192.59 16.3594C193.016 15.9297 193.373 15.5469 193.662 15.2109C193.955 14.875 194.178 14.5449 194.33 14.2207C194.482 13.8926 194.559 13.5332 194.559 13.1426C194.559 12.6582 194.414 12.2891 194.125 12.0352C193.84 11.7773 193.463 11.6484 192.994 11.6484C192.584 11.6484 192.221 11.7188 191.904 11.8594C191.588 12 191.264 12.1992 190.932 12.457L190.41 11.8008C190.637 11.6094 190.883 11.4395 191.148 11.291C191.418 11.1426 191.705 11.0254 192.01 10.9395C192.318 10.8535 192.646 10.8105 192.994 10.8105C193.521 10.8105 193.977 10.9023 194.359 11.0859C194.742 11.2695 195.037 11.5312 195.244 11.8711C195.455 12.2109 195.561 12.6152 195.561 13.084C195.561 13.5371 195.471 13.959 195.291 14.3496C195.111 14.7363 194.859 15.1211 194.535 15.5039C194.211 15.8828 193.832 16.2852 193.398 16.7109L191.535 18.5684V18.6094H195.912V19.5Z" fill="black"/>
</svg>
